<svg width="94" height="28" viewBox="0 0 94 28" fill="none" xmlns="http://www.w3.org/2000/svg">
<path d="M56.7964 8.64871e-07H4.32026e-07L4.53012 4.53441L56.7964 8.64871e-07Z" transform="translate(18.8 23.4656)" fill="#BF0000"/>
<path d="M10.306 0.396761V1.07692C9.23012 0.396761 8.3241 1.08109e-07 7.02169 1.08109e-07C3.05783 1.08109e-07 -4.32026e-07 3.62753 -4.32026e-07 8.10526C-4.32026e-07 12.583 3.00121 16.2105 7.02169 16.2105C8.3241 16.2105 9.28675 15.8138 10.306 15.1336V15.8138H13.8169V0.396761H10.306ZM6.96506 12.5263C4.98313 12.5263 3.56747 10.5992 3.56747 8.16194C3.56747 5.7247 4.98313 3.79757 6.96506 3.79757C8.94699 3.79757 10.306 5.7247 10.306 8.16194C10.3627 10.5992 8.94699 12.5263 6.96506 12.5263Z" transform="translate(13.7602 4.70447)" fill="#BF0000"/>
<path d="M9.28675 0V9.06883C9.28675 10.7692 8.09759 12.1862 6.3988 12.1862C4.7 12.1862 3.51085 10.7692 3.51085 9.06883V0H-8.64052e-07V9.06883C-8.64052e-07 12.8097 2.54819 15.8138 6.28554 15.8138C7.98434 15.8138 9.28675 14.8502 9.28675 14.8502V15.417H12.7976V0H9.28675Z" transform="translate(42.8096 5.1012)" fill="#BF0000"/>
<path d="M3.51085 15.8138V6.74494C3.51085 5.04453 4.7 3.62753 6.39879 3.62753C8.09759 3.62753 9.28675 5.04453 9.28675 6.74494V15.8138H12.7976V6.74494C12.7976 3.00405 10.2494 -2.16218e-07 6.51204 -2.16218e-07C4.81325 -2.16218e-07 3.51085 0.963563 3.51085 0.963563V0.340081H-3.45621e-06V15.7571H3.51085V15.8138Z" transform="translate(81.2024 4.76117)" fill="#BF0000"/>
<path d="M3.68072 19.3279V13.3198H6.22892L10.7024 19.2713H15.2892L9.85301 12.0729C11.5518 10.8826 12.6277 8.89879 12.6277 6.63158C12.6277 2.94737 9.62651 2.70272e-08 6.00241 2.70272e-08H0V19.2713H3.68072V19.3279ZM3.68072 3.68421H6.05904C7.7012 3.68421 9.06024 5.04453 9.06024 6.68826C9.06024 8.33198 7.7012 9.69231 6.05904 9.69231H3.68072V3.68421Z" transform="translate(0 1.24695)" fill="#BF0000"/>
<path d="M8.21084 15.6437C7.87109 15.8704 7.4747 16.0405 7.02168 16.0405C6.45542 16.0405 5.37952 15.587 5.37952 14.17V7.53846H8.38072V3.85425H5.37952V2.70272e-08H1.86867V3.85425H1.7281e-06V7.53846H1.86867V14.17C1.86867 17.6275 4.4735 19.668 7.07831 19.668C8.04097 19.668 9.4 19.3279 10.4759 18.7045L8.21084 15.6437Z" transform="translate(56.7964 1.24695)" fill="#BF0000"/>
<path d="M6.68193 12.3563L12.6843 5.10121H7.81446L3.56747 10.4858V0H4.32026e-07V20.5749H3.56747V14.2267L8.77711 20.5749H13.647L6.68193 12.3563Z" transform="translate(29.559)" fill="#BF0000"/>
<path d="M6.96506 1.08109e-07C2.88796 1.08109e-07 1.7281e-06 3.57085 1.7281e-06 8.10526C1.7281e-06 12.8664 3.62409 16.2105 7.30482 16.2105C9.17349 16.2105 11.4952 15.587 13.4771 12.753L10.3627 10.9393C7.98434 14.4534 3.96386 12.6964 3.51084 9.12551H13.5904C14.4964 3.68421 10.9289 1.08109e-07 6.96506 1.08109e-07ZM10.0229 6.12146H3.73735C4.47349 2.55061 9.34337 2.32389 10.0229 6.12146Z" transform="translate(66.1398 4.70447)" fill="#BF0000"/>
</svg>
